<svg width="59.555mm" height="19.479mm" version="1.1" viewBox="0 0 59.555 19.479" xmlns="http://www.w3.org/2000/svg">
<g transform="translate(-107.02 -64.888)">
<path transform="matrix(.26458 0 0 .26458 107.02 64.888)" d="m159.6 0c-8.9864 0-15.408 6.994-16.045 14.465h-109.78v-10.674l-29.928 9.5996v4.2754h-3.8477v26.086h0.013672v20.236c0 5.3374 4.8954 9.6348 10.977 9.6348h199.78c3.4304 0 6.4823-1.3694 8.4922-3.5195h5.8144v-20.232c2e-3 -0.07082 0.0117-0.13974 0.0117-0.21094v-25.561c0-5.3374-4.8954-9.6348-10.977-9.6348h-38.328c-0.6263-7.7704-7.182-14.465-16.182-14.465zm0.32812 14.363c0.0713-0.0073 0.14052 0.02006 0.20118 0.10156h-0.38477c-0.0601 0.0017-1e-3 -0.0039-0.14453-0.0039 0.0866 0 0.20897-0.08553 0.32812-0.09766z" fill="#333" style="paint-order:stroke markers fill"/>
<g fill="#fff" stroke-dashoffset="18.884" stroke-linecap="square" stroke-width="4.4518" style="paint-order:stroke markers fill;text-orientation:upright" aria-label="tocsin">
<path d="m109.26 71.788v2.45h1.0177v3.3546c0.0565 2.4123 0.15077 3.9576 2.9776 3.9576 0.43345 0 1.715-0.13192 2.2804-0.35807v-2.4123c-0.35807 0.15077-0.94229 0.32038-1.1873 0.32038-0.73499 0-0.60307-0.86691-0.60307-1.5077v-3.3546h1.7904v-2.45h-1.7904v-2.8457l-3.4676 1.1119v1.7338z"/>
<path d="m121.29 81.456c2.8646 0 5.1826-1.7904 5.1449-4.9188-0.0565-3.1473-2.2615-4.9376-5.2392-4.9753-2.6007 0-5.1449 1.7527-5.1638 4.8999-0.0377 3.3357 2.563 4.9942 5.258 4.9942zm0-2.4123c-0.79152 0-1.3946-1.0177-1.3946-2.563 0-1.3757 0.56537-2.4688 1.3004-2.4688 0.88576 0.01885 1.3758 1.1119 1.3758 2.5253s-0.47114 2.5065-1.2815 2.5065z"/>
<path d="m136.2 76.047v-4.2592h-2.2238l-0.32038 0.9046c-0.32038-0.37692-1.0742-1.0742-2.3557-1.0742-2.4123 0-4.6361 1.4888-4.6361 4.8245 0 3.3546 2.4123 5.0318 5.1826 5.0318 2.0354 0 3.7315-0.96114 4.6172-1.9223l-1.6584-1.9223c-0.62191 0.67845-1.2815 1.0931-2.2804 1.0742-1.2061-0.01885-1.9411-0.99883-1.9411-2.2238s0.54654-2.4123 1.6584-2.4123c0.86691 0 1.1496 1.0742 1.1873 1.9788z"/>
<path d="m136.94 81.211h2.3557l0.16962-1.1496c0.4523 0.71614 1.5265 1.3757 2.8834 1.3757 1.828 0 3.5053-1.0554 3.5053-2.8269 0-1.9788-1.6019-2.5253-3.0342-3.0153-1.2061-0.41461-2.318-0.64076-2.318-1.1684 0-0.47115 0.33923-0.67845 0.73499-0.67845 0.94229 0 1.9223 0.64076 1.9223 1.4323h2.45v-3.3923h-2.318l-0.15077 1.2438c-0.39576-0.81037-1.5265-1.47-2.808-1.47-1.3381 0-3.3169 0.81037-3.3169 2.7327 0 1.7715 1.225 2.563 2.5065 3.0153 1.3569 0.47115 2.7704 0.56538 2.7704 1.1308 0 0.52768-0.4523 0.64076-0.82922 0.64076-0.56538 0-1.9977-0.26384-1.9977-1.2627h-2.5254z"/>
<path d="m147.23 69.036c0 0.9046 0.84806 1.9034 2.0354 1.9034 1.3381 0 2.073-0.86691 2.073-1.9034 0-0.86691-0.77268-1.9223-2.073-1.9223-1.3192 0-2.0354 1.0554-2.0354 1.9223zm4.7492 12.174v-2.4688h-0.9046v-6.9541h-4.3722v2.45h0.79153v4.5042h-0.79153v2.4688z"/>
<path d="m158.72 81.211v-2.4688h-1.3569v-2.6761c0-0.81037 0.22615-1.7527 1.1873-1.7527 1.1119 0 1.0554 1.1119 1.0554 1.7527v5.1449h4.7492v-2.4688h-0.88575v-3.1473c0-1.9788-0.49-4.1461-3.4111-4.1461-1.1873 0-2.0542 0.62191-2.695 1.5077l-0.43345-1.1684h-4.0142v2.45h0.79153v4.5042h-0.79153v2.4688z"/>
</g>
</g>
</svg>
